<svg xmlns="http://www.w3.org/2000/svg" viewBox="0 0 121.18 121.17"><defs><style>.cls-1{fill:#212349;}</style></defs><g id="Layer_2" data-name="Layer 2"><g id="Layer_1-2" data-name="Layer 1"><path class="cls-1" d="M2.66,54.16,17.13,39.69V81.48L2.66,67A9.08,9.08,0,0,1,2.66,54.16Z"/><path class="cls-1" d="M43.11,83.88H35.58a3.82,3.82,0,0,1-3.83-3.82V38.67A4.2,4.2,0,0,1,36,34.47h7.15c4.81,0,8.52,1.16,11.16,3.47s3.94,5.59,3.94,9.82V70.6q0,6.34-3.94,9.81C51.63,82.73,47.92,83.88,43.11,83.88Z"/><path class="cls-1" d="M118.52,67,93.25,92.29l-5.66,5.65L67,118.51a9.1,9.1,0,0,1-12.86,0L33.62,98h9.12q10,0,16.86-3.47a23.51,23.51,0,0,0,10.33-9.71,29.86,29.86,0,0,0,3.44-14.62v-22a29.75,29.75,0,0,0-3.58-15,23.07,23.07,0,0,0-10.43-9.5q-6.86-3.26-16.57-3.25H36.43L54.16,2.66A9.1,9.1,0,0,1,67,2.66l51.5,51.5A9.08,9.08,0,0,1,118.52,67Z"/></g></g></svg>