<svg width="805" height="541" viewBox="0 0 805 541" fill="none" xmlns="http://www.w3.org/2000/svg">
<path d="M0 8C0 3.58172 3.58172 0 8 0H797C801.418 0 805 3.58172 805 8V533C805 537.418 801.418 541 797 541H8C3.58172 541 0 537.418 0 533V8Z" fill="#6561DB"/>
<path d="M421.5 254.5H373.5C372.395 254.5 371.5 255.395 371.5 256.5V292.5C371.5 293.605 372.395 294.5 373.5 294.5H421.5C422.605 294.5 423.5 293.605 423.5 292.5V256.5C423.5 255.395 422.605 254.5 421.5 254.5Z" stroke="white" stroke-width="2" stroke-miterlimit="10"/>
<path d="M380.5 252.5V246.5H433.5V286.5H425.5" stroke="white" stroke-width="2" stroke-miterlimit="10"/>
<path d="M371.5 284.5L385.5 270.5L399.5 286.5L409.5 280.5L423.5 292.5" stroke="white" stroke-width="2" stroke-miterlimit="10"/>
<path d="M410.5 272.5C413.261 272.5 415.5 270.261 415.5 267.5C415.5 264.739 413.261 262.5 410.5 262.5C407.739 262.5 405.5 264.739 405.5 267.5C405.5 270.261 407.739 272.5 410.5 272.5Z" stroke="white" stroke-width="2" stroke-miterlimit="10"/>
</svg>
